<svg width="51" height="51" viewBox="0 0 51 51" fill="none" xmlns="http://www.w3.org/2000/svg">
<circle opacity="0.25" cx="25.5" cy="25.5" r="25.5" fill="#C6C6C6"/>
<path d="M35.66 24.44L34.68 28.62C33.84 32.23 32.18 33.69 29.06 33.39C28.56 33.35 28.02 33.26 27.44 33.12L25.76 32.72C21.59 31.73 20.3 29.67 21.28 25.49L22.26 21.3C22.46 20.45 22.7 19.71 23 19.1C24.17 16.68 26.16 16.03 29.5 16.82L31.17 17.21C35.36 18.19 36.64 20.26 35.66 24.44Z" stroke="#353346" stroke-width="1.68016" stroke-linecap="round" stroke-linejoin="round"/>
<path d="M29.06 33.39C28.44 33.81 27.66 34.16 26.71 34.47L25.13 34.99C21.16 36.27 19.07 35.2 17.78 31.23L16.5 27.28C15.22 23.31 16.28 21.21 20.25 19.93L21.83 19.41C22.24 19.28 22.63 19.17 23 19.1C22.7 19.71 22.46 20.45 22.26 21.3L21.28 25.49C20.3 29.67 21.59 31.73 25.76 32.72L27.44 33.12C28.02 33.26 28.56 33.35 29.06 33.39Z" stroke="#353346" stroke-width="1.68016" stroke-linecap="round" stroke-linejoin="round"/>
<path d="M26.64 22.53L31.49 23.76" stroke="#353346" stroke-width="1.68016" stroke-linecap="round" stroke-linejoin="round"/>
<path d="M25.66 26.4L28.56 27.14" stroke="#353346" stroke-width="1.68016" stroke-linecap="round" stroke-linejoin="round"/>
</svg>
