<svg width="40" height="40" viewBox="0 0 40 40" fill="none" xmlns="http://www.w3.org/2000/svg">
<circle cx="20" cy="20" r="20" fill="#F1F1F1"/>
<path d="M11.6667 17.5V15.4167C11.6667 13.3417 13.3417 11.6667 15.4167 11.6667H17.5" stroke="#0063F5" stroke-width="1.5" stroke-linecap="round" stroke-linejoin="round"/>
<path d="M22.5 11.6667H24.5833C26.6583 11.6667 28.3333 13.3417 28.3333 15.4167V17.5" stroke="#0063F5" stroke-width="1.5" stroke-linecap="round" stroke-linejoin="round"/>
<path d="M28.3333 23.3333V24.5833C28.3333 26.6583 26.6583 28.3333 24.5833 28.3333H23.3333" stroke="#0063F5" stroke-width="1.5" stroke-linecap="round" stroke-linejoin="round"/>
<path d="M17.5 28.3333H15.4167C13.3417 28.3333 11.6667 26.6583 11.6667 24.5833V22.5" stroke="#0063F5" stroke-width="1.5" stroke-linecap="round" stroke-linejoin="round"/>
<path d="M24.1666 17.9167V22.0833C24.1666 23.75 23.3333 24.5833 21.6666 24.5833H18.3333C16.6666 24.5833 15.8333 23.75 15.8333 22.0833V17.9167C15.8333 16.25 16.6666 15.4167 18.3333 15.4167H21.6666C23.3333 15.4167 24.1666 16.25 24.1666 17.9167Z" stroke="#0063F5" stroke-width="1.5" stroke-linecap="round" stroke-linejoin="round"/>
<path d="M25.8334 20H14.1667" stroke="#0063F5" stroke-width="1.5" stroke-linecap="round" stroke-linejoin="round"/>
</svg>
